<?xml version="1.0" encoding="UTF-8" standalone="no" ?>
<!DOCTYPE svg PUBLIC "-//W3C//DTD SVG 1.1//EN" "http://www.w3.org/Graphics/SVG/1.1/DTD/svg11.dtd">
<svg xmlns="http://www.w3.org/2000/svg" xmlns:xlink="http://www.w3.org/1999/xlink" version="1.1" width="1080" height="1080" viewBox="0 0 1080 1080" xml:space="preserve">
<desc>Created with Fabric.js 5.2.4</desc>
<defs>
</defs>
<g transform="matrix(1 0 0 1 540 540)" id="b6356489-3b91-471f-be68-fae38d101998"  >
<rect style="stroke: none; stroke-width: 1; stroke-dasharray: none; stroke-linecap: butt; stroke-dashoffset: 0; stroke-linejoin: miter; stroke-miterlimit: 4; fill: rgb(255,255,255); fill-rule: nonzero; opacity: 1; visibility: hidden;" vector-effect="non-scaling-stroke"  x="-540" y="-540" rx="0" ry="0" width="1080" height="1080" />
</g>
<g transform="matrix(1 0 0 1 540 540)" id="716513cf-15ef-4ceb-9be7-e8121404ee06"  >
</g>
<g transform="matrix(1 0 0 1 540 540)" id="c96e88f0-7f75-4126-a4f6-4252ef1304db"  >
<path style="stroke: rgb(0,0,0); stroke-width: 0; stroke-dasharray: none; stroke-linecap: butt; stroke-dashoffset: 0; stroke-linejoin: miter; stroke-miterlimit: 4; fill: rgb(127,165,255); fill-rule: nonzero; opacity: 1;" vector-effect="non-scaling-stroke"  transform=" translate(-57.37, -61.43)" d="M 64.94 8.92 C 66.97 12.44 68.36 21.17 69.09 32.73 L 82.06 32.73 L 82.06 20.46 C 81.78 20.330000000000002 81.51 20.18 81.25 20.01 C 80.76 19.700000000000003 80.31 19.34 79.92 18.950000000000003 L 79.87 18.900000000000002 C 79.18 18.21 78.63000000000001 17.380000000000003 78.25 16.46 C 77.87 15.55 77.66 14.55 77.66 13.5 C 77.66 12.46 77.86999999999999 11.47 78.25 10.55 C 78.64 9.600000000000001 79.22 8.75 79.92 8.040000000000001 C 80.63 7.330000000000001 81.48 6.760000000000001 82.43 6.370000000000001 C 83.34 5.990000000000001 84.34 5.780000000000001 85.38000000000001 5.780000000000001 C 86.42000000000002 5.780000000000001 87.41000000000001 5.990000000000001 88.33000000000001 6.370000000000001 C 89.28000000000002 6.760000000000001 90.13000000000001 7.340000000000001 90.84000000000002 8.040000000000001 C 91.55000000000001 8.75 92.12000000000002 9.600000000000001 92.51000000000002 10.540000000000001 L 92.53000000000002 10.600000000000001 C 92.89000000000001 11.500000000000002 93.09000000000002 12.48 93.09000000000002 13.490000000000002 C 93.09000000000002 14.530000000000001 92.88000000000002 15.520000000000001 92.50000000000001 16.44 C 92.11000000000001 17.39 91.53000000000002 18.240000000000002 90.83000000000001 18.950000000000003 L 90.77000000000001 19.01 C 90.42000000000002 19.35 90.03000000000002 19.67 89.62 19.94 C 89.4 20.09 89.17 20.220000000000002 88.93 20.35 L 88.93 36.19 C 88.93 37.14 88.54 38 87.92 38.62 C 87.3 39.239999999999995 86.44 39.629999999999995 85.49 39.629999999999995 L 69.43 39.629999999999995 C 69.55000000000001 42.919999999999995 69.63000000000001 46.379999999999995 69.66000000000001 49.949999999999996 L 100.10000000000001 49.949999999999996 C 100.23 49.69 100.37 49.44 100.52000000000001 49.199999999999996 L 100.56000000000002 49.15 C 100.85000000000002 48.699999999999996 101.19000000000001 48.29 101.55000000000001 47.93 C 102.26 47.22 103.11000000000001 46.65 104.06000000000002 46.26 L 104.12000000000002 46.239999999999995 C 105.02000000000002 45.879999999999995 106.00000000000001 45.669999999999995 107.01000000000002 45.669999999999995 C 108.05000000000003 45.669999999999995 109.04000000000002 45.879999999999995 109.96000000000002 46.26 C 110.91000000000003 46.65 111.76000000000002 47.23 112.47000000000003 47.93 C 113.18000000000002 48.64 113.75000000000003 49.49 114.14000000000003 50.44 C 114.52000000000002 51.36 114.73000000000003 52.349999999999994 114.73000000000003 53.39 C 114.73000000000003 54.43 114.52000000000004 55.42 114.14000000000003 56.34 C 113.75000000000003 57.290000000000006 113.17000000000003 58.14 112.47000000000003 58.85 C 111.76000000000003 59.56 110.91000000000003 60.13 109.96000000000002 60.52 L 109.90000000000002 60.540000000000006 C 109.00000000000001 60.900000000000006 108.02000000000002 61.10000000000001 107.01000000000002 61.10000000000001 C 105.97000000000001 61.10000000000001 104.97000000000001 60.89000000000001 104.06000000000002 60.510000000000005 C 103.12000000000002 60.120000000000005 102.27000000000001 59.550000000000004 101.55000000000001 58.84 C 101.17000000000002 58.46 100.83000000000001 58.040000000000006 100.53000000000002 57.57 C 100.37000000000002 57.33 100.23000000000002 57.08 100.10000000000001 56.82 L 69.67 56.82 C 69.64 60.72 69.56 64.71 69.43 68.77 L 106.64000000000001 68.77 C 107.59000000000002 68.77 108.45000000000002 69.16 109.07000000000002 69.78 C 109.69000000000003 70.4 110.08000000000003 71.26 110.08000000000003 72.21000000000001 L 110.08000000000003 97.74000000000001 C 110.41000000000003 97.88000000000001 110.72000000000003 98.04 111.02000000000002 98.22000000000001 C 111.56000000000003 98.54 112.05000000000003 98.93 112.49000000000002 99.37000000000002 C 113.20000000000002 100.08000000000001 113.77000000000002 100.93000000000002 114.16000000000003 101.88000000000002 L 114.18000000000002 101.94000000000003 C 114.54000000000002 102.84000000000003 114.75000000000001 103.82000000000002 114.75000000000001 104.83000000000003 C 114.75000000000001 105.87000000000003 114.54000000000002 106.86000000000003 114.16000000000001 107.78000000000003 C 113.77000000000001 108.73000000000003 113.19000000000001 109.58000000000003 112.49000000000001 110.29000000000003 C 111.78000000000002 111.00000000000003 110.93 111.57000000000004 109.98 111.96000000000004 C 109.07000000000001 112.34000000000003 108.07000000000001 112.55000000000004 107.03 112.55000000000004 C 105.99 112.55000000000004 105 112.34000000000005 104.08 111.96000000000004 C 103.13 111.57000000000004 102.28 110.99000000000004 101.57 110.29000000000003 C 100.86 109.58000000000004 100.28999999999999 108.73000000000003 99.89999999999999 107.78000000000003 C 99.52 106.87000000000003 99.30999999999999 105.87000000000003 99.30999999999999 104.83000000000003 C 99.30999999999999 103.79000000000002 99.51999999999998 102.79000000000002 99.89999999999999 101.88000000000002 C 100.28999999999999 100.93000000000002 100.86999999999999 100.08000000000003 101.57 99.37000000000002 C 101.88999999999999 99.05000000000003 102.25 98.75000000000001 102.63 98.48000000000002 C 102.81 98.35000000000002 103 98.23000000000002 103.19999999999999 98.12000000000002 L 103.19999999999999 75.66 L 69.16 75.66 C 69.00999999999999 78.89999999999999 68.83 82.14999999999999 68.61 85.39 L 79.65 85.39 C 80.60000000000001 85.39 81.46000000000001 85.78 82.08000000000001 86.4 C 82.70000000000002 87.02000000000001 83.09000000000002 87.88000000000001 83.09000000000002 88.83000000000001 L 83.09000000000002 102.49000000000001 C 83.34000000000002 102.62 83.57000000000002 102.76 83.81000000000002 102.91000000000001 C 84.27000000000001 103.21000000000001 84.68000000000002 103.55000000000001 85.05000000000001 103.92000000000002 L 85.11000000000001 103.98000000000002 C 85.79000000000002 104.68000000000002 86.35000000000001 105.51000000000002 86.73000000000002 106.43000000000002 C 87.11000000000001 107.34000000000002 87.32000000000002 108.34000000000002 87.32000000000002 109.38000000000002 C 87.32000000000002 110.42000000000003 87.11000000000003 111.42000000000003 86.73000000000002 112.33000000000003 L 86.70000000000002 112.39000000000003 C 86.31000000000002 113.32000000000004 85.74000000000002 114.15000000000003 85.05000000000001 114.84000000000003 L 85.00000000000001 114.89000000000003 C 84.30000000000001 115.58000000000003 83.47000000000001 116.14000000000003 82.56000000000002 116.52000000000002 C 81.65000000000002 116.90000000000002 80.64000000000001 117.11000000000003 79.60000000000002 117.11000000000003 C 78.56000000000002 117.11000000000003 77.57000000000002 116.90000000000003 76.65000000000002 116.52000000000002 C 75.70000000000002 116.13000000000002 74.85000000000002 115.55000000000003 74.14000000000001 114.85000000000002 L 74.08000000000001 114.79000000000002 C 73.4 114.09000000000002 72.84000000000002 113.26000000000002 72.46000000000001 112.34000000000002 C 72.08000000000001 111.42000000000002 71.87 110.43000000000002 71.87 109.39000000000001 C 71.87 108.35000000000001 72.08 107.36000000000001 72.46000000000001 106.44000000000001 C 72.85000000000001 105.49000000000001 73.42 104.64000000000001 74.13000000000001 103.93 L 74.13000000000001 103.93 C 74.52000000000001 103.54 74.96000000000001 103.19000000000001 75.42000000000002 102.89 C 75.67000000000002 102.73 75.93000000000002 102.58 76.20000000000002 102.45 L 76.20000000000002 92.28 L 68.1 92.28 C 67.99 93.65 67.86999999999999 95.02 67.75 96.38 C 67.59 98.14 67.08 101.39 67.41 103 C 68.28999999999999 107.27 64.44 120.15 53.12 122.52 C 47.54 123.67999999999999 41.769999999999996 121.97 37.42 118.57 C 33.940000000000005 115.86 31.330000000000002 112.05 30.39 107.74 C 28.57 107.67 26.72 107.3 24.92 106.69999999999999 C 20.94 105.35999999999999 17.110000000000003 102.74999999999999 14.120000000000001 99.28999999999999 C 11.110000000000001 95.82 8.93 91.46 8.240000000000002 86.60999999999999 C 7.890000000000002 84.07999999999998 7.940000000000002 81.43999999999998 8.500000000000002 78.71999999999998 C 6.550000000000002 76.94999999999999 4.870000000000002 74.95999999999998 3.540000000000002 72.78999999999999 C 1.22 69.08 -0.05 64.9 0 60.6 C 0.05 56.27 1.43 51.88 4.42 47.8 C 6.16 45.43 8.45 43.169999999999995 11.35 41.099999999999994 C 11.32 40.309999999999995 11.32 39.519999999999996 11.34 38.739999999999995 C 11.57 32.419999999999995 13.9 26.859999999999992 17.3 22.709999999999994 C 20.82 18.409999999999993 25.53 15.599999999999994 30.37 14.909999999999993 L 30.39 14.909999999999993 C 30.560000000000002 14.199999999999992 30.76 13.499999999999993 31.02 12.819999999999993 C 32.58 8.589999999999993 35.79 4.989999999999993 39.72 2.699999999999994 C 43.68 0.39999999999999414 48.43 -0.6200000000000059 53.06 0.3399999999999941 C 57.51 1.28 61.75 3.94 64.94 8.92 L 64.94 8.92 L 64.94 8.92 z M 30.77 99.21 C 32.41 94.05 36.74 88.89999999999999 44.91 84.72999999999999 C 46.949999999999996 83.69999999999999 49.42999999999999 84.49999999999999 50.48 86.52999999999999 C 51.51 88.57 50.709999999999994 91.04999999999998 48.68 92.1 C 41.11 95.97 38.26 100.41 38.26 104.28 C 38.26 107.3 39.98 110.12 42.48 112.08 C 45.019999999999996 114.05 48.3 115.08 51.4 114.44 C 55.26 113.64 58.98 110.07 60.91 102.28999999999999 L 60.91 20.49 C 58.98 12.77 55.26 9.219999999999999 51.41 8.419999999999998 C 48.87 7.889999999999998 46.169999999999995 8.489999999999998 43.87 9.839999999999998 C 41.54 11.189999999999998 39.669999999999995 13.269999999999998 38.78 15.669999999999998 C 37.6 18.869999999999997 38.300000000000004 22.799999999999997 42.300000000000004 26.5 C 43.96 28.05 44.07000000000001 30.64 42.52 32.3 C 40.970000000000006 33.959999999999994 38.38 34.07 36.720000000000006 32.519999999999996 C 33.61000000000001 29.639999999999997 31.690000000000005 26.579999999999995 30.730000000000004 23.529999999999994 C 28.280000000000005 24.119999999999994 25.860000000000003 25.739999999999995 23.900000000000006 28.119999999999994 C 21.610000000000007 30.909999999999993 20.040000000000006 34.69 19.880000000000006 39.029999999999994 C 19.840000000000007 40.17999999999999 19.900000000000006 41.39999999999999 20.070000000000007 42.64999999999999 L 20.060000000000006 42.64999999999999 C 20.280000000000005 44.26999999999999 19.560000000000006 45.94999999999999 18.080000000000005 46.85999999999999 C 15.080000000000005 48.699999999999996 12.870000000000005 50.72999999999999 11.320000000000006 52.83999999999999 C 9.440000000000005 55.39999999999999 8.580000000000005 58.08999999999999 8.550000000000006 60.67999999999999 C 8.520000000000007 63.309999999999995 9.330000000000005 65.92999999999999 10.780000000000006 68.27999999999999 C 12.010000000000007 70.26999999999998 13.690000000000007 72.08999999999999 15.740000000000006 73.60999999999999 C 17.280000000000005 74.66999999999999 18.000000000000007 76.64999999999999 17.370000000000005 78.49999999999999 C 16.560000000000006 80.89999999999999 16.380000000000006 83.22999999999999 16.690000000000005 85.39999999999999 C 17.130000000000006 88.52 18.580000000000005 91.36999999999999 20.560000000000006 93.66 C 22.550000000000004 95.96 25.070000000000007 97.67999999999999 27.650000000000006 98.56 C 28.69 98.96 29.74 99.16 30.77 99.21 L 30.77 99.21 L 30.77 99.21 z M 31.71 41.1 C 33.33 39.51 35.93 39.53 37.53 41.15 C 39.120000000000005 42.769999999999996 39.1 45.37 37.480000000000004 46.97 C 33.95 50.449999999999996 32.11000000000001 54.93 31.910000000000004 59.51 C 31.720000000000002 64.23 33.25000000000001 69.09 36.470000000000006 73.08 C 37.900000000000006 74.85 37.61000000000001 77.44 35.84 78.87 C 34.07 80.30000000000001 31.480000000000004 80.01 30.050000000000004 78.24000000000001 C 25.540000000000006 72.65 23.400000000000006 65.85000000000001 23.670000000000005 59.18000000000001 C 23.96 52.56 26.62 46.1 31.71 41.1 L 31.71 41.1 L 31.71 41.1 z" stroke-linecap="round" />
</g>
</svg>